<svg width="28" height="28" viewBox="0 0 28 28" fill="none" xmlns="http://www.w3.org/2000/svg">
<path d="M11.3135 12.7783C11.5684 12.5938 11.6914 12.2891 11.6914 11.8701C11.7002 11.6709 11.6592 11.4746 11.5713 11.2959C11.4922 11.1523 11.375 11.0322 11.2314 10.9473C11.0826 10.857 10.9173 10.7972 10.7451 10.7715C10.5576 10.7363 10.3672 10.7188 10.1797 10.7217H8.12012V13.0566H10.3496C10.7334 13.0596 11.0586 12.9658 11.3135 12.7783ZM11.6592 14.8877C11.3721 14.668 10.9883 14.5596 10.5107 14.5596H8.11426V17.3135H10.4639C10.6836 17.3135 10.8857 17.293 11.082 17.252C11.2677 17.2156 11.4448 17.144 11.6035 17.041C11.7529 16.9443 11.873 16.8125 11.9639 16.6426C12.0518 16.4727 12.0957 16.2559 12.0957 15.9951C12.0957 15.4766 11.9492 15.1104 11.6592 14.8877ZM14 0.875C6.75195 0.875 0.875 6.75195 0.875 14C0.875 21.248 6.75195 27.125 14 27.125C21.248 27.125 27.125 21.248 27.125 14C27.125 6.75195 21.248 0.875 14 0.875ZM16.5342 9.28027H20.5889V10.2676H16.5342V9.28027ZM14 17.4219C13.8104 17.7819 13.5395 18.0928 13.209 18.3301C12.8633 18.5703 12.4795 18.7461 12.0723 18.8486C11.6462 18.9628 11.2067 19.019 10.7656 19.0156H5.91406V9.02246H10.6309C11.1084 9.02246 11.542 9.06641 11.9375 9.14844C12.3301 9.23047 12.6641 9.37109 12.9453 9.56152C13.2236 9.75195 13.4434 10.0068 13.5986 10.3232C13.751 10.6367 13.8301 11.0293 13.8301 11.4951C13.8301 11.999 13.7158 12.415 13.4873 12.752C13.2559 13.0889 12.9219 13.3613 12.4678 13.5752C13.0859 13.751 13.54 14.0645 13.8389 14.5039C14.1436 14.9492 14.293 15.4824 14.293 16.1094C14.293 16.6191 14.1963 17.0557 14 17.4219ZM22.168 15.875H16.9414C16.9414 16.4434 17.1377 16.9883 17.4336 17.2812C17.7324 17.5713 18.1602 17.7178 18.7197 17.7178C19.124 17.7178 19.4668 17.6152 19.7598 17.4131C20.0498 17.2109 20.2256 16.9971 20.29 16.7744H22.042C21.7607 17.6445 21.333 18.2656 20.7529 18.6406C20.1787 19.0156 19.4756 19.2031 18.6582 19.2031C18.0869 19.2031 17.5742 19.1094 17.1143 18.9307C16.6719 18.7578 16.2734 18.4941 15.9453 18.1543C15.6218 17.8053 15.3717 17.3948 15.21 16.9473C15.0312 16.4521 14.9434 15.9307 14.9492 15.4062C14.9492 14.8643 15.04 14.3604 15.2158 13.8916C15.5527 12.9805 16.2529 12.251 17.1465 11.873C17.624 11.6738 18.1367 11.5742 18.6553 11.5801C19.2705 11.5801 19.8037 11.6973 20.2666 11.9375C20.7122 12.1669 21.0991 12.4957 21.3975 12.8984C21.6934 13.2998 21.9014 13.7568 22.0332 14.2725C22.1592 14.7793 22.2031 15.3125 22.168 15.875ZM18.5938 13.0742C18.2773 13.0742 18.0107 13.1299 17.8057 13.2383C17.6006 13.3467 17.4307 13.4814 17.3018 13.6367C17.179 13.7866 17.0883 13.9601 17.0352 14.1465C16.9883 14.3018 16.9561 14.46 16.9443 14.6211H20.1816C20.1348 14.1143 19.959 13.7393 19.7246 13.4756C19.4785 13.2148 19.083 13.0742 18.5938 13.0742Z" fill="white"/>
</svg>
