<svg width="135" height="61" viewBox="0 0 135 61" fill="none" xmlns="http://www.w3.org/2000/svg">
<path d="M16.348 23.6707L0 23.4912C1.06041 31.029 9.51424 32.7938 13.6086 32.734C21.8091 32.0879 23.9771 37.1311 24.036 39.7334C24.3188 29.1087 19.0285 24.598 16.348 23.6707Z" fill="url(#paint0_linear_28_368)"/>
<path d="M34.6069 39.7329C34.3233 29.1977 38.6724 25.2292 42.3168 23.8056L48.7751 18.2888L55.6874 9.56885C54.7903 15.7974 58.7005 23.8056 45.064 32.7925C42.0465 34.7811 34.6659 37.1525 34.6069 39.7329Z" fill="url(#paint1_linear_28_368)"/>
<path d="M23.9161 39.1652C24.0579 29.2832 18.7186 24.7391 16.0313 23.7023C22.7644 23.9867 27.8143 26.3091 29.4975 27.4347C33.1122 24.3777 39.7449 23.6727 42.6094 23.7023C35.9472 26.1906 34.636 35.0477 34.8132 39.1652V48.674C34.6714 55.7834 27.4894 59.4566 23.9161 60.4045V39.1652Z" fill="url(#paint2_linear_28_368)"/>
<circle cx="28.8984" cy="18.0061" r="5.69531" fill="white"/>
<path d="M40.4999 40.1721V58.242H52.44V54.4012H44.3222V50.9994H52.1488V47.4513H44.3222V44.0494H52.44V40.1721H40.4999Z" fill="url(#paint3_linear_28_368)"/>
<path d="M60.8101 40.1721L54.2576 58.242H58.3347L59.6452 54.6207H66.0157L67.3626 58.242H71.4397L64.8872 40.1721H60.8101ZM62.8486 45.8052L64.6324 50.8165H61.0285L62.8486 45.8052Z" fill="url(#paint4_linear_28_368)"/>
<path d="M81.0011 39.7332C76.0503 39.7332 71.4636 43.3545 71.4636 49.2071C71.4636 55.0962 76.0503 58.7175 81.0011 58.7175C83.3673 58.7175 85.697 57.9494 87.9176 56.3765L85.9519 53.4502C83.8405 54.8402 82.3844 54.9865 81.0011 54.9865C78.1617 54.9865 75.3587 52.3162 75.3587 49.2071C75.3587 46.0979 78.1617 43.4642 81.0011 43.4642C82.3844 43.4642 83.8405 43.6105 85.9519 45.0005L87.9176 42.0742C85.697 40.5013 83.3673 39.7332 81.0011 39.7332Z" fill="url(#paint5_linear_28_368)"/>
<path d="M89.736 40.1721V58.242H93.5583V51.1457H100.111V58.242H103.933V40.1721H100.111V47.305H93.5583V40.1721H89.736Z" fill="url(#paint6_linear_28_368)"/>
<path d="M106.48 40.1721V58.242H118.42V54.4012H110.302V50.9994H118.129V47.4513H110.302V44.0494H118.42V40.1721H106.48Z" fill="url(#paint7_linear_28_368)"/>
<path d="M128.229 40.1721H120.949V58.242H124.771V54.8036H125.535L129.722 58.242H135L130.304 54.2915C133.107 53.377 134.927 50.6336 134.927 47.4147C134.927 43.4276 132.161 40.1721 128.229 40.1721ZM124.771 44.1958H127.829C129.612 44.1958 130.996 45.6223 130.996 47.4147C130.996 49.1705 129.576 50.5239 127.829 50.6336H124.771V44.1958Z" fill="url(#paint8_linear_28_368)"/>
<path d="M76.0957 11.708C72.5098 11.708 69.1875 14.3184 69.1875 18.5371C69.1875 22.7822 72.5098 25.3926 76.0957 25.3926C77.8096 25.3926 79.4971 24.8389 81.1055 23.7051L79.6817 21.5957C78.1524 22.5977 77.0977 22.7031 76.0957 22.7031C74.0391 22.7031 72.0088 20.7783 72.0088 18.5371C72.0088 16.2959 74.0391 14.3975 76.0957 14.3975C77.0977 14.3975 78.1524 14.5029 79.6817 15.5049L81.1055 13.3955C79.4971 12.2617 77.8096 11.708 76.0957 11.708Z" fill="white"/>
<path d="M88.2224 11.708C84.4255 11.708 81.3669 14.7666 81.3669 18.5371C81.3669 22.334 84.4255 25.3926 88.2224 25.3926C92.0193 25.3926 95.1042 22.334 95.1042 18.5371C95.1042 14.7666 92.0193 11.708 88.2224 11.708ZM88.2224 14.3975C90.279 14.3975 92.2829 16.2959 92.2829 18.5371C92.2829 20.7783 90.279 22.7031 88.2224 22.7031C86.1921 22.7031 84.1882 20.7783 84.1882 18.5371C84.1882 16.2959 86.1921 14.3975 88.2224 14.3975Z" fill="white"/>
<path d="M103.543 11.708C99.7463 11.708 96.6877 14.7666 96.6877 18.5371C96.6877 22.334 99.7463 25.3926 103.543 25.3926C107.34 25.3926 110.425 22.334 110.425 18.5371C110.425 14.7666 107.34 11.708 103.543 11.708ZM103.543 14.3975C105.6 14.3975 107.604 16.2959 107.604 18.5371C107.604 20.7783 105.6 22.7031 103.543 22.7031C101.513 22.7031 99.509 20.7783 99.509 18.5371C99.509 16.2959 101.513 14.3975 103.543 14.3975Z" fill="white"/>
<path d="M112.008 12.0244V25.0498H120.71V22.2813H114.856V12.0244H112.008Z" fill="white"/>
<path d="M67.3333 13.5611L56.8847 10.1641L56.4027 12.0003L67.3333 13.5611Z" fill="white"/>
<path d="M41.9766 17.1046V8.57576C41.9766 4.39178 45.3683 1 49.5523 1H126.581C130.764 1 134.156 4.39178 134.156 8.57576V27.2384C134.156 31.4224 130.764 34.8142 126.581 34.8142H61.1571" stroke="white" stroke-width="1.51515"/>
<defs>
<linearGradient id="paint0_linear_28_368" x1="12.0234" y1="23.4912" x2="12.0234" y2="39.7334" gradientUnits="userSpaceOnUse">
<stop stop-color="white"/>
<stop offset="1" stop-color="#D6D6D6"/>
</linearGradient>
<linearGradient id="paint1_linear_28_368" x1="45.1406" y1="9.56885" x2="45.1406" y2="39.7329" gradientUnits="userSpaceOnUse">
<stop stop-color="white"/>
<stop offset="1" stop-color="#D6D6D6"/>
</linearGradient>
<linearGradient id="paint2_linear_28_368" x1="29.3203" y1="23.7014" x2="29.3203" y2="60.4045" gradientUnits="userSpaceOnUse">
<stop stop-color="white"/>
<stop offset="1" stop-color="#D6D6D6"/>
</linearGradient>
<linearGradient id="paint3_linear_28_368" x1="87.7499" y1="39.7332" x2="87.7499" y2="58.7175" gradientUnits="userSpaceOnUse">
<stop stop-color="white"/>
<stop offset="1" stop-color="white"/>
</linearGradient>
<linearGradient id="paint4_linear_28_368" x1="87.7499" y1="39.7332" x2="87.7499" y2="58.7175" gradientUnits="userSpaceOnUse">
<stop stop-color="white"/>
<stop offset="1" stop-color="white"/>
</linearGradient>
<linearGradient id="paint5_linear_28_368" x1="87.7499" y1="39.7332" x2="87.7499" y2="58.7175" gradientUnits="userSpaceOnUse">
<stop stop-color="white"/>
<stop offset="1" stop-color="white"/>
</linearGradient>
<linearGradient id="paint6_linear_28_368" x1="87.7499" y1="39.7332" x2="87.7499" y2="58.7175" gradientUnits="userSpaceOnUse">
<stop stop-color="white"/>
<stop offset="1" stop-color="white"/>
</linearGradient>
<linearGradient id="paint7_linear_28_368" x1="87.7499" y1="39.7332" x2="87.7499" y2="58.7175" gradientUnits="userSpaceOnUse">
<stop stop-color="white"/>
<stop offset="1" stop-color="white"/>
</linearGradient>
<linearGradient id="paint8_linear_28_368" x1="87.7499" y1="39.7332" x2="87.7499" y2="58.7175" gradientUnits="userSpaceOnUse">
<stop stop-color="white"/>
<stop offset="1" stop-color="white"/>
</linearGradient>
</defs>
</svg>
